<?xml version="1.0" standalone="no"?>
<!DOCTYPE svg PUBLIC "-//W3C//DTD SVG 20010904//EN"
 "http://www.w3.org/TR/2001/REC-SVG-20010904/DTD/svg10.dtd">
<svg version="1.0" xmlns="http://www.w3.org/2000/svg"
 width="128.000000pt" height="128.000000pt" viewBox="0 0 128.000000 128.000000"
 preserveAspectRatio="xMidYMid meet">

<g transform="translate(0.000000,128.000000) scale(0.100000,-0.100000)"
fill="#000000" stroke="none">
<path d="M523 1181 c-41 -11 -112 -53 -140 -83 -45 -49 -67 -108 -71 -196 l-5
-85 24 6 c13 4 36 7 52 7 26 0 27 1 27 59 0 95 27 144 102 182 61 31 148 19
202 -29 32 -29 56 -93 56 -154 0 -56 1 -58 28 -58 15 0 37 -3 50 -6 21 -6 22
-4 22 53 0 127 -54 227 -151 276 -59 30 -141 42 -196 28z"/>
<path d="M804 556 c-47 -21 -105 -77 -125 -121 -12 -24 -19 -64 -19 -101 -1
-215 253 -321 405 -169 120 119 79 324 -77 389 -45 19 -142 20 -184 2z m76
-151 c12 -14 15 -14 30 0 22 20 54 19 71 -1 11 -14 10 -21 -4 -46 -16 -28 -16
-32 -1 -49 34 -38 -18 -89 -56 -54 -17 15 -20 15 -44 0 -49 -33 -92 8 -58 55
19 25 19 26 1 49 -14 17 -16 27 -9 42 13 23 53 25 70 4z"/>
</g>
</svg>
