 <svg  version="1.0" xmlns="http://www.w3.org/2000/svg"  width="300.000000pt" height="300.000000pt" viewBox="0 0 300.000000 300.000000"  preserveAspectRatio="xMidYMid meet">  <g transform="translate(0.000000,300.000000) scale(0.100000,-0.100000)" fill="#ffffff" stroke="none"> <path d="M1221 2899 c-438 -93 -787 -360 -989 -755 -102 -202 -152 -410 -152 -639 0 -222 45 -415 145 -620 195 -402 572 -690 1012 -775 144 -28 382 -28 526 0 282 54 520 181 730 388 117 116 201 231 272 372 108 216 145 378 145 637 0 258 -36 418 -145 638 -85 173 -222 344 -365 459 -196 157 -385 246 -629 296 -132 27 -423 26 -550 -1z m499 -29 c19 -6 53 -13 75 -16 40 -5 102 -22 185 -51 45 -16 231 -103 240 -113 14 -14 70 -50 80 -50 5 0 10 -4 10 -8 0 -5 21 -24 48 -43 134 -96 293 -292 377 -464 74 -154 96 -216 115 -335 5 -30 14 -71 20 -90 13 -44 12 -330 -1 -390 -5 -25 -12 -63 -15 -85 -3 -22 -20 -83 -37 -135 -72 -227 -180 -402 -353 -573 -413 -409 -1055 -512 -1574 -252 -136 68 -252 151 -354 252 -221 219 -340 445 -401 763 -20 100 -17 376 4 475 37 172 51 215 126 370 84 172 243 368 378 464 26 19 47 38 47 43 0 4 5 8 10 8 10 0 66 36 80 50 9 10 195 97 240 113 83 28 145 46 185 51 22 3 54 10 70 15 41 13 402 13 445 1z"/> <path d="M750 2144 l0 -90 90 4 90 4 0 -676 0 -676 57 63 c31 34 122 132 203 217 80 85 220 234 310 330 90 96 198 211 240 255 64 67 381 404 415 441 5 6 54 57 109 113 54 56 97 103 95 104 -2 1 -115 0 -251 -3 l-246 -5 -49 -45 c-416 -388 -612 -570 -615 -570 -2 0 -3 140 -3 310 l0 311 -223 2 -222 2 0 -91z m404 30 c3 -9 6 -136 6 -283 0 -255 1 -268 20 -289 12 -12 24 -22 29 -22 14 0 237 203 608 552 l61 58 186 0 c102 0 186 -4 186 -9 0 -11 -1261 -1351 -1271 -1351 -5 0 -9 272 -9 604 0 595 0 604 -21 630 -17 21 -29 26 -67 26 -79 0 -92 7 -92 49 0 21 3 41 7 44 3 4 84 7 179 7 147 0 173 -2 178 -16z"/> </g> </svg> 